<svg width="24" height="24" viewBox="0 0 24 24" fill="none" xmlns="http://www.w3.org/2000/svg">
<mask id="path-1-outside-1_11_28" maskUnits="userSpaceOnUse" x="3" y="0" width="18" height="23" fill="black">
<rect fill="white" x="3" width="18" height="23"/>
<path d="M8 6C8 3.79086 9.79086 2 12 2C14.2091 2 16 3.79086 16 6V7H8V6Z"/>
</mask>
<path d="M18.5172 12.7795L19.4086 12.9035L18.5172 12.7795ZM18.2549 14.6645L19.1463 14.7886V14.7886L18.2549 14.6645ZM5.74514 14.6645L6.63655 14.5405L5.74514 14.6645ZM5.4828 12.7795L4.59139 12.9036L5.4828 12.7795ZM9.18365 21.7368L8.83374 22.566H8.83374L9.18365 21.7368ZM6.47508 18.5603L7.31987 18.2499L6.47508 18.5603ZM17.5249 18.5603L18.3697 18.8707H18.3697L17.5249 18.5603ZM14.8164 21.7368L14.4664 20.9076L14.8164 21.7368ZM5.89596 8.91487C5.84895 8.42004 5.4097 8.05702 4.91487 8.10403C4.42004 8.15105 4.05702 8.5903 4.10404 9.08513L5.89596 8.91487ZM19.896 9.08513C19.943 8.5903 19.58 8.15105 19.0851 8.10404C18.5903 8.05702 18.1511 8.42004 18.104 8.91487L19.896 9.08513ZM20 7.9C20.4971 7.9 20.9 7.49706 20.9 7C20.9 6.50294 20.4971 6.1 20 6.1V7.9ZM4 6.1C3.50294 6.1 3.1 6.50294 3.1 7C3.1 7.49706 3.50294 7.9 4 7.9V6.1ZM9.1 18C9.1 18.4971 9.50294 18.9 10 18.9C10.4971 18.9 10.9 18.4971 10.9 18H9.1ZM10.9 10C10.9 9.50294 10.4971 9.1 10 9.1C9.50294 9.1 9.1 9.50294 9.1 10H10.9ZM13.1 18C13.1 18.4971 13.5029 18.9 14 18.9C14.4971 18.9 14.9 18.4971 14.9 18H13.1ZM14.9 10C14.9 9.50294 14.4971 9.1 14 9.1C13.5029 9.1 13.1 9.50294 13.1 10H14.9ZM17.6258 12.6554L17.3635 14.5405L19.1463 14.7886L19.4086 12.9035L17.6258 12.6554ZM6.63655 14.5405L6.37421 12.6554L4.59139 12.9036L4.85373 14.7886L6.63655 14.5405ZM12 21.1C10.4574 21.1 9.94907 21.083 9.53355 20.9076L8.83374 22.566C9.66551 22.917 10.6191 22.9 12 22.9V21.1ZM4.85373 14.7886C5.13235 16.7906 5.28631 17.9345 5.6303 18.8707L7.31987 18.2499C7.05931 17.5408 6.92816 16.6359 6.63655 14.5405L4.85373 14.7886ZM9.53356 20.9076C8.65987 20.539 7.82589 19.6272 7.31987 18.2499L5.6303 18.8707C6.25478 20.5704 7.37498 21.9505 8.83374 22.566L9.53356 20.9076ZM17.3635 14.5405C17.0718 16.6359 16.9407 17.5408 16.6801 18.2499L18.3697 18.8707C18.7137 17.9345 18.8677 16.7906 19.1463 14.7886L17.3635 14.5405ZM12 22.9C13.3809 22.9 14.3345 22.917 15.1663 22.566L14.4664 20.9076C14.0509 21.083 13.5426 21.1 12 21.1V22.9ZM16.6801 18.2499C16.1741 19.6272 15.3401 20.539 14.4664 20.9076L15.1663 22.566C16.625 21.9505 17.7452 20.5704 18.3697 18.8707L16.6801 18.2499ZM6.37421 12.6554C6.15191 11.0581 5.9866 9.86883 5.89596 8.91487L4.10404 9.08513C4.19924 10.0872 4.37122 11.3215 4.59139 12.9036L6.37421 12.6554ZM19.4086 12.9035C19.6288 11.3215 19.8008 10.0872 19.896 9.08513L18.104 8.91487C18.0134 9.86883 17.8481 11.0581 17.6258 12.6554L19.4086 12.9035ZM20 6.1H4V7.9H20V6.1ZM10.9 18V10H9.1V18H10.9ZM14.9 18V10H13.1V18H14.9ZM16 7V8.8H17.8V7H16ZM8 7H6.2V8.8H8V7ZM14.2 6V7H17.8V6H14.2ZM16 5.2H8V8.8H16V5.2ZM9.8 7V6H6.2V7H9.8ZM12 3.8C13.215 3.8 14.2 4.78497 14.2 6H17.8C17.8 2.79675 15.2033 0.2 12 0.2V3.8ZM12 0.2C8.79675 0.2 6.2 2.79675 6.2 6H9.8C9.8 4.78497 10.785 3.8 12 3.8V0.2Z" fill="#1B1B1B" mask="url(#path-1-outside-1_11_28)"/>
</svg>
